<svg xmlns="http://www.w3.org/2000/svg" width="14.727" height="9.822" viewBox="0 0 14.727 9.822">
  <path id="Icon_ionic-ios-arrow-round-forward" data-name="Icon ionic-ios-arrow-round-forward" d="M17.267,11.44a.668.668,0,0,0-.005.941l3.11,3.115H8.535a.665.665,0,0,0,0,1.33H20.367l-3.11,3.115a.673.673,0,0,0,.005.941.662.662,0,0,0,.936-.005l4.215-4.246h0a.747.747,0,0,0,.138-.21.635.635,0,0,0,.051-.256.667.667,0,0,0-.189-.465L18.2,11.455A.652.652,0,0,0,17.267,11.44Z" transform="translate(-7.875 -11.252)"/>
</svg>
